<svg aria-hidden="true" style="position: absolute; width: 0; height: 0; overflow: hidden;" version="1.1" xmlns="http://www.w3.org/2000/svg" xmlns:xlink="http://www.w3.org/1999/xlink">
<defs>
<symbol id="icon-hand" viewBox="0 0 34 32">
<path d="M5.328 8.021c-0.12 0.099-3.912 8.459-3.912 8.626 0 0.060 0.026 0.142 0.051 0.18 0.073 0.090 4.495 2.089 4.633 2.089 0.060 0 0.137-0.034 0.172-0.077 0.039-0.039 0.227-0.429 0.42-0.866 0.197-0.438 0.373-0.811 0.39-0.832 0.034-0.039 0.039-0.039 0.939 0.253 1.802 0.583 2.835 1.051 7.55 3.419 2.552 1.283 5.323 2.608 6.198 2.973 1.248 0.515 4.967 0.103 8-0.888 1.304-0.425 1.845-0.781 2.132-1.403 0.45-0.957-0.236-1.935-1.351-1.935-0.146 0-0.704 0.039-1.24 0.086-0.54 0.047-1.102 0.094-1.257 0.107s-0.356 0.030-0.45 0.043c-0.716 0.077-2.235 0.142-2.96 0.124-0.648-0.017-0.759-0.026-1.068-0.086-0.12-0.026-1.75-0.922-1.857-1.021-0.043-0.039-0.004-0.069 0.167-0.133 0.27-0.107 0.579-0.399 0.721-0.686 0.090-0.18 0.107-0.279 0.107-0.626 0-0.386-0.009-0.425-0.159-0.733-0.287-0.579-0.811-1.047-3.187-2.844-1.21-0.914-1.42-1.077-1.845-1.416-1.15-0.927-2.136-1.343-3.732-1.583-0.738-0.112-1.343-0.172-3.303-0.322l-0.343-0.026 0.013-0.202c0.013-0.176 0.004-0.206-0.103-0.275-0.214-0.142-4.435-2.033-4.534-2.033-0.051 0.004-0.137 0.039-0.193 0.086zM7.558 9.463c1.021 0.463 1.875 0.858 1.896 0.879s0.004 0.069-0.051 0.112c-0.051 0.043-0.253 0.455-0.45 0.914-0.974 2.252-2.981 6.782-3.028 6.833s-3.805-1.669-3.788-1.737c0.026-0.103 3.53-7.841 3.552-7.841 0.004 0 0.845 0.377 1.87 0.841zM10.509 11.063c0.249 0.021 0.596 0.051 0.772 0.069 2.587 0.206 3.53 0.377 4.474 0.811 0.429 0.193 1.304 0.768 1.488 0.974 0.026 0.026 1.029 0.802 1.368 1.055 0.133 0.099 0.365 0.275 0.515 0.386 0.154 0.112 0.549 0.416 0.879 0.669 1.66 1.283 2.050 1.69 2.115 2.218 0.047 0.42-0.081 0.686-0.433 0.866-0.249 0.133-0.716 0.129-1.12-0.009-0.326-0.107-0.532-0.219-2.273-1.201-0.635-0.36-1.304-0.738-1.48-0.836s-0.618-0.347-0.982-0.553c-0.36-0.202-0.699-0.382-0.751-0.395-0.223-0.056-0.416 0.279-0.27 0.463 0.026 0.039 0.438 0.287 0.909 0.553 0.472 0.262 1.613 0.905 2.531 1.424 0.922 0.519 1.952 1.102 2.295 1.295s0.961 0.54 1.373 0.772c1.257 0.712 1.347 0.755 1.729 0.819 0.562 0.103 2.642 0.077 3.848-0.047 0.107-0.009 0.33-0.030 0.493-0.043 0.167-0.013 0.751-0.060 1.304-0.112 1.24-0.112 1.6-0.103 1.819 0.047 0.305 0.206 0.416 0.648 0.244 0.982-0.116 0.236-0.476 0.54-0.832 0.712-0.969 0.463-3.26 1.034-5.28 1.317-0.545 0.073-0.892 0.094-1.694 0.094-1.205 0.004-1.231 0-2.282-0.48-1.681-0.768-2.621-1.223-5.89-2.861-3.179-1.591-4.723-2.321-5.855-2.758-0.54-0.21-1.999-0.695-2.085-0.695-0.034 0-0.060-0.026-0.060-0.060s0.455-1.072 1.012-2.308c0.558-1.231 1.107-2.462 1.227-2.728 0.249-0.549 0.159-0.506 0.892-0.442z"></path>
</symbol>
<symbol id="icon-many" viewBox="0 0 34 32">
<path d="M17.525 2.539c-2.831 0.159-5.047 1.001-5.674 2.152l-0.146 0.271-0.026 6.348-0.266-0.034c-2.689-0.305-5.438 0.043-7.182 0.915-0.644 0.318-1.155 0.777-1.383 1.246l-0.12 0.245v13.315l0.125 0.236c0.258 0.49 0.636 0.838 1.284 1.181 0.941 0.498 2.122 0.825 3.617 0.992 0.889 0.099 2.569 0.099 3.436 0 2.577-0.296 4.381-1.108 4.897-2.199l0.116-0.241 0.202 0.026c0.992 0.133 2.612 0.15 3.664 0.043 0.666-0.069 0.679-0.069 0.816 0.017 0.292 0.176 1.362 0.696 1.873 0.906 1.46 0.601 2.822 0.915 3.96 0.924 0.713 0 1.143-0.073 1.585-0.284 0.503-0.236 0.584-0.357 1.417-2.032 0.408-0.829 0.769-1.576 0.803-1.671 0.082-0.223 0.077-0.73-0.009-1.018-0.176-0.588-0.606-1.228-1.259-1.89-0.924-0.919-2.062-1.714-3.569-2.474l-0.494-0.249-0.043-14.303-0.116-0.219c-0.64-1.216-2.843-2.049-5.824-2.208-0.829-0.043-0.842-0.043-1.684 0.004zM19.505 3.393c2.088 0.159 3.737 0.666 4.463 1.37 0.481 0.464 0.494 0.786 0.052 1.228-1.241 1.237-5.275 1.804-8.389 1.177-1.448-0.288-2.599-0.82-2.955-1.357-0.18-0.271-0.202-0.434-0.099-0.666 0.511-1.155 3.81-1.989 6.928-1.752zM12.787 7.027c1.701 1.13 5.588 1.572 8.561 0.979 1.138-0.228 2.332-0.67 2.831-1.057 0.056-0.043 0.12-0.077 0.137-0.077 0.056 0 0.047 1.688-0.009 1.834-0.185 0.494-0.833 0.936-1.911 1.297-0.588 0.193-1.297 0.352-2.1 0.46-0.79 0.107-2.947 0.112-3.715 0.004-2.023-0.284-3.505-0.868-3.93-1.551l-0.129-0.21-0.013-0.919c-0.009-0.503 0-0.915 0.017-0.915s0.133 0.069 0.262 0.155zM12.787 10.167c0.881 0.563 2.156 0.945 3.879 1.155 0.82 0.103 2.676 0.103 3.522 0.004 1.628-0.198 3.075-0.631 3.879-1.164 0.129-0.086 0.245-0.155 0.262-0.155 0.013 0 0.026 0.391 0.026 0.868 0 0.752-0.013 0.898-0.082 1.044-0.116 0.253-0.275 0.421-0.597 0.631-0.752 0.49-1.886 0.846-3.359 1.052-0.958 0.133-3.917 0.086-4.154-0.069-0.026-0.013-0.086-0.112-0.142-0.219-0.206-0.408-0.838-0.911-1.559-1.246-0.395-0.18-1.125-0.425-1.628-0.541l-0.335-0.077v-0.722c0-0.395 0.009-0.722 0.021-0.722 0.009 0 0.129 0.069 0.266 0.159zM11.572 12.151c1.121 0.168 1.92 0.395 2.667 0.76 0.713 0.344 1.138 0.769 1.138 1.134 0 0.799-1.77 1.649-4.038 1.929-1.087 0.137-2.646 0.137-3.737 0.004-1.765-0.215-3.363-0.82-3.849-1.452-0.176-0.228-0.206-0.339-0.176-0.571 0.030-0.236 0.176-0.438 0.481-0.67 0.692-0.524 1.907-0.936 3.329-1.13 0.911-0.125 0.859-0.12 2.276-0.107 1.061 0.013 1.426 0.030 1.907 0.103zM24.354 14.020v0.876l-0.12 0.228c-0.305 0.584-1.405 1.13-2.929 1.452-1.314 0.279-3.35 0.344-4.862 0.146l-0.206-0.026v-2.277l0.249 0.030c1.551 0.168 3.148 0.133 4.54-0.107 1.263-0.215 2.483-0.64 3.114-1.087 0.082-0.060 0.163-0.107 0.185-0.112 0.017 0 0.030 0.395 0.030 0.876zM4.566 16.073c0.752 0.326 1.813 0.593 2.951 0.743 0.713 0.095 2.427 0.133 3.2 0.069 1.868-0.155 3.419-0.584 4.416-1.22l0.245-0.159v0.906c0 0.82-0.009 0.915-0.086 1.074-0.391 0.76-1.989 1.396-4.166 1.654-1.211 0.146-3.131 0.086-4.27-0.133-1.594-0.309-2.796-0.85-3.161-1.426l-0.129-0.202v-1.873l0.314 0.202c0.168 0.112 0.477 0.275 0.687 0.365zM24.354 17.173c0 0.739-0.013 0.868-0.082 1.027-0.112 0.236-0.417 0.546-0.511 0.507-0.279-0.107-1.138-0.339-1.572-0.43-1.34-0.266-2.435-0.215-3.161 0.15-0.352 0.176-0.601 0.472-0.889 1.048l-0.249 0.498h-0.215c-0.116 0-0.485-0.030-0.816-0.064s-0.606-0.064-0.61-0.064c-0.009 0-0.013-0.515-0.013-1.143v-1.147l0.249 0.030c2.367 0.262 4.665 0.052 6.434-0.588 0.408-0.146 0.898-0.387 1.155-0.563 0.12-0.077 0.228-0.137 0.249-0.125 0.017 0.009 0.030 0.399 0.030 0.863zM3.892 18.865c0.855 0.52 2.010 0.872 3.582 1.087 0.674 0.095 2.564 0.133 3.307 0.069 1.808-0.159 3.337-0.576 4.265-1.164 0.15-0.095 0.288-0.172 0.305-0.172s0.026 0.421 0.017 0.936l-0.013 0.941-0.129 0.185c-0.722 1.048-3.926 1.804-6.744 1.594-2.405-0.18-4.278-0.816-4.794-1.632l-0.125-0.193v-0.915c0-0.503 0.009-0.915 0.017-0.915s0.15 0.082 0.309 0.18zM21.348 18.985c1.795 0.223 4.184 1.211 5.945 2.461 1.697 1.203 2.74 2.62 2.397 3.252-0.198 0.369-0.7 0.541-1.555 0.528-2.805-0.034-7.031-2.173-8.642-4.377-0.223-0.305-0.417-0.739-0.447-0.992-0.039-0.318 0.095-0.546 0.43-0.726 0.318-0.172 1.134-0.236 1.873-0.146zM17.009 20.772c0.202 0.013 0.391 0.030 0.417 0.039 0.039 0.013-0.060 0.249-0.279 0.692l-0.331 0.674 0.004 0.447v0.447l-0.107-0.021c-0.060-0.013-0.193-0.034-0.292-0.047l-0.185-0.030v-2.281l0.202 0.030c0.112 0.013 0.369 0.039 0.571 0.052zM18.551 20.952c0.146 0.288 0.58 0.833 0.975 1.233 1.529 1.542 4.171 2.998 6.503 3.587 0.941 0.236 1.25 0.275 2.152 0.279h0.846l-0.404 0.799c-0.241 0.481-0.442 0.838-0.511 0.889-0.064 0.052-0.223 0.133-0.357 0.189-0.228 0.090-0.305 0.099-1.018 0.095-0.868-0.004-1.392-0.090-2.367-0.382-2.916-0.881-5.966-2.985-6.619-4.57-0.18-0.447-0.155-0.58 0.296-1.486 0.219-0.438 0.404-0.795 0.408-0.795 0.009 0 0.047 0.073 0.095 0.163zM3.853 21.979c0.683 0.438 1.77 0.808 2.994 1.022 1.46 0.253 3.595 0.262 5.12 0.021 1.16-0.185 2.362-0.584 3.050-1.014 0.172-0.103 0.318-0.189 0.335-0.189 0.013 0 0.026 0.395 0.026 0.881 0 0.683-0.013 0.919-0.064 1.035-0.228 0.546-1.344 1.13-2.77 1.452-2.646 0.593-5.91 0.352-7.839-0.571-0.507-0.245-0.838-0.494-1.014-0.769l-0.125-0.198v-0.915c0-0.503 0.009-0.915 0.021-0.915 0.009 0 0.129 0.069 0.266 0.159zM16.911 23.908l0.348 0.030 0.206 0.296c0.258 0.382 0.958 1.087 1.512 1.529 0.241 0.189 0.468 0.365 0.511 0.391 0.043 0.021 0.060 0.056 0.043 0.077-0.021 0.017-0.515 0.034-1.095 0.030-0.924 0-1.538-0.043-2.057-0.133l-0.142-0.021v-2.281l0.163 0.026c0.086 0.017 0.318 0.039 0.511 0.056zM3.943 25.166c2.62 1.576 8.436 1.576 11.056 0 0.193-0.116 0.357-0.21 0.365-0.21 0.004 0 0.013 0.399 0.013 0.889 0 1.031-0.026 1.125-0.395 1.448-1.070 0.932-3.934 1.512-6.563 1.319-2.092-0.155-3.78-0.666-4.523-1.375-0.314-0.296-0.331-0.361-0.331-1.379 0-0.494 0.009-0.902 0.013-0.902 0.009 0 0.172 0.095 0.365 0.21z"></path>
</symbol>
<symbol id="icon-glasses" viewBox="0 0 34 32">
<path d="M8.427 9.987c-1.198 0.137-2.113 0.49-2.998 1.151-1.486 1.104-2.337 2.809-2.337 4.66 0 1.576 0.546 2.934 1.636 4.063 0.842 0.876 1.838 1.426 3.045 1.688 0.283 0.060 0.55 0.077 1.181 0.077 0.752-0.004 0.855-0.013 1.31-0.125 1.422-0.357 2.526-1.091 3.389-2.259 0.644-0.872 1.018-1.924 1.104-3.097 0.030-0.46 0.107-0.631 0.421-0.958 0.709-0.726 1.813-0.846 2.672-0.292 0.318 0.206 0.537 0.46 0.722 0.829 0.12 0.241 0.15 0.356 0.176 0.692 0.116 1.546 0.657 2.775 1.675 3.797 0.55 0.554 0.906 0.816 1.546 1.13 0.906 0.451 1.628 0.619 2.62 0.619 1.589 0 2.998-0.584 4.128-1.71 1.121-1.117 1.701-2.521 1.705-4.123 0.004-1.301-0.387-2.478-1.155-3.501-0.567-0.752-1.233-1.31-2.057-1.718-0.928-0.46-1.594-0.619-2.599-0.619-0.966 0-1.671 0.155-2.487 0.537-0.872 0.412-1.649 1.039-2.221 1.795-0.425 0.563-1.005 1.817-1.005 2.169 0 0.103-0.056 0.086-0.198-0.064-0.202-0.215-0.636-0.507-0.924-0.623-1.001-0.408-2.083-0.249-2.886 0.421-0.112 0.095-0.21 0.168-0.219 0.159s-0.047-0.159-0.090-0.335c-0.563-2.332-2.689-4.149-5.111-4.364-0.163-0.013-0.357-0.030-0.43-0.039-0.069-0.009-0.348 0.009-0.614 0.039zM9.871 10.721c1.070 0.219 1.959 0.692 2.71 1.443 0.7 0.704 1.112 1.43 1.383 2.44 0.129 0.464 0.159 1.602 0.064 2.113-0.206 1.087-0.67 1.972-1.443 2.745-0.679 0.683-1.469 1.138-2.397 1.379-0.464 0.12-0.563 0.133-1.233 0.133-0.777 0-1.052-0.039-1.679-0.249-1.4-0.468-2.736-1.761-3.196-3.097-0.576-1.645-0.374-3.294 0.58-4.721 0.46-0.696 1.34-1.435 2.139-1.804 0.318-0.146 0.966-0.339 1.362-0.408 0.361-0.060 1.357-0.047 1.71 0.026zM25.544 11.035c0.232 0.047 0.571 0.133 0.756 0.193 1.426 0.472 2.706 1.744 3.191 3.174 0.309 0.906 0.374 1.959 0.172 2.826-0.472 2.045-1.993 3.531-4.076 3.977-0.481 0.103-1.503 0.103-1.997-0.004-1.924-0.408-3.466-1.851-3.982-3.72-0.142-0.524-0.215-1.448-0.15-1.976 0.146-1.177 0.653-2.208 1.499-3.054 0.735-0.739 1.598-1.207 2.624-1.43 0.434-0.095 1.452-0.086 1.963 0.013z"></path>
</symbol>
<symbol id="icon-5" viewBox="0 0 34 32">
<path d="M13.529 3.582c-0.648 0.142-1.321 0.656-1.596 1.223-0.279 0.575-0.266 0.296-0.266 5.735 0 2.72-0.013 4.946-0.030 4.946-0.021 0-0.090-0.086-0.154-0.189-0.176-0.283-0.575-0.631-0.901-0.789-0.939-0.463-2.016-0.292-2.784 0.45-0.708 0.686-0.922 1.759-0.528 2.66 0.056 0.12 0.36 0.605 0.673 1.072 3.084 4.551 3.23 4.813 4.435 7.777 0.369 0.909 0.695 1.703 0.729 1.767 0.137 0.262-0.223 0.249 5.975 0.249 4.187 0 5.692-0.013 5.769-0.051 0.219-0.099 0.18 0.051 1.034-3.74 0.562-2.497 0.682-3.848 0.656-7.211-0.017-1.737-0.030-2.102-0.090-2.329-0.322-1.218-1.45-1.977-2.681-1.806-0.275 0.039-0.455 0.094-0.896 0.283-0.030 0.009-0.090-0.060-0.146-0.167-0.206-0.408-0.605-0.806-1.034-1.030-0.575-0.3-1.308-0.347-1.952-0.12-0.137 0.047-0.253 0.069-0.262 0.047-0.009-0.026-0.086-0.154-0.176-0.292-0.305-0.476-0.905-0.888-1.45-0.999-0.24-0.051-1.029-0.039-1.265 0.021l-0.12 0.030v-2.775c0-3.058 0-3.041-0.27-3.56-0.18-0.347-0.661-0.819-1.017-0.999-0.498-0.249-1.102-0.322-1.656-0.202zM14.602 4.551c0.33 0.12 0.635 0.412 0.806 0.759l0.142 0.287 0.026 6.117-0.154 0.18c-0.193 0.223-0.425 0.704-0.489 1.008-0.030 0.15-0.047 1.171-0.047 3.067 0 3.161 0 3.14 0.292 3.693 0.283 0.545 0.781 0.948 1.424 1.167 0.172 0.060 0.36 0.081 0.686 0.081 0.549 0 0.927-0.107 1.355-0.39 0.159-0.103 0.292-0.189 0.296-0.189s0.133 0.081 0.283 0.184c0.875 0.588 2.063 0.532 2.904-0.137l0.227-0.18 0.197 0.176c0.365 0.322 1.008 0.553 1.531 0.558 0.365 0 0.764-0.099 1.128-0.283l0.356-0.176v0.133c0 0.262-0.167 1.729-0.253 2.243-0.077 0.446-0.275 1.364-0.901 4.131l-0.12 0.536-10.466 0.021-0.635-1.553c-0.939-2.303-1.536-3.466-2.617-5.075-0.335-0.498-1.025-1.518-1.531-2.278-0.592-0.879-0.948-1.446-0.978-1.566-0.082-0.296-0.034-0.794 0.099-1.051 0.146-0.292 0.528-0.631 0.824-0.742 0.317-0.12 0.712-0.12 1.038 0.004 0.399 0.146 0.639 0.433 1.214 1.428 0.27 0.472 0.536 0.901 0.596 0.952 0.146 0.137 0.429 0.133 0.592-0.004l0.12-0.103 0.021-5.98 0.021-5.975 0.094-0.206c0.133-0.287 0.245-0.429 0.468-0.618 0.382-0.309 0.978-0.403 1.45-0.223zM17.956 12.097c0.313 0.154 0.54 0.39 0.699 0.725l0.112 0.24v5.834l-0.12 0.24c-0.159 0.326-0.502 0.643-0.824 0.764-0.343 0.133-0.845 0.112-1.158-0.039-0.275-0.133-0.575-0.433-0.708-0.708l-0.107-0.214v-5.962l0.116-0.214c0.112-0.219 0.442-0.562 0.639-0.665 0.386-0.206 0.931-0.21 1.351 0zM21.207 13.225c0.305 0.142 0.562 0.403 0.716 0.738l0.124 0.266-0.009 2.355-0.013 2.355-0.107 0.214c-0.133 0.275-0.438 0.575-0.708 0.703-0.313 0.15-0.819 0.172-1.141 0.051-0.133-0.051-0.313-0.154-0.403-0.232l-0.159-0.137 0.197-0.601 0.017-2.801 0.013-2.797 0.137-0.073c0.416-0.214 0.922-0.232 1.334-0.043zM24.729 14.387c0.279 0.124 0.575 0.42 0.716 0.699 0.099 0.206 0.099 0.219 0.112 1.969 0.013 1.712 0.009 1.772-0.081 2.008-0.112 0.3-0.459 0.673-0.755 0.811-0.167 0.077-0.283 0.094-0.613 0.094-0.356 0-0.438-0.013-0.643-0.116-0.129-0.064-0.317-0.202-0.42-0.305l-0.184-0.184 0.069-0.279c0.051-0.223 0.064-0.643 0.064-2.321v-2.046l0.159-0.129c0.176-0.146 0.39-0.257 0.592-0.309 0.236-0.064 0.733-0.009 0.987 0.107z"></path>
</symbol>
</defs>
</svg>